<svg width="100" height="104" viewBox="0 0 100 104" fill="none" xmlns="http://www.w3.org/2000/svg">
<path d="M25.4092 99.6589C14.5498 95.7691 6.66481 86.09 3.54283 72.8172C2.12596 66.7931 1.72532 56.8389 2.89989 56.8389C3.29012 56.8389 4.33236 59.5703 5.216 62.9086C7.14969 70.2136 10.4479 77.0829 13.6337 80.4407C18.9255 86.0179 32.0325 88.2023 39.5846 84.7654C45.4674 82.0882 47.8531 75.725 45.2949 69.5344C43.3181 64.7507 38.8334 63.1511 30.4799 64.2502C30.4799 64.2502 25.3603 58.7265 23.7293 48.9173L28.9768 49.3943C35.297 49.9687 40.0689 48.5684 42.5456 45.4124C44.8729 42.4467 44.8226 41.2997 42.2327 38.2816C38.4955 33.9266 31.7851 35.0299 18.1985 42.233L11.3432 30.7143L14.2172 28.517C21.4195 23.0105 33.9252 20.2576 41.0422 22.612C47.5248 24.7565 52.2829 33.2659 51.0119 40.4416C50.1526 45.2929 46.2718 52.0877 43.2735 53.9905L40.6878 55.6315L44.2594 57.2459C50.3287 59.9892 54.0339 57.8921 58.4607 49.2082C64.5869 37.1907 68.5603 34.0797 77.7996 34.0664C82.1016 34.0602 83.6328 34.5125 86.7705 36.7166C94.6017 42.2175 98.8658 53.6086 97.9292 66.5255C96.7429 82.8847 89.0123 92.8074 77.4534 92.8074C71.1098 92.8074 67.0209 90.5772 63.7661 85.3419C60.9072 80.7434 59.6189 71.6359 61.2607 67.6295C62.0483 65.7074 62.1907 65.6422 62.2422 67.1799C62.3368 70.0068 65.5454 74.6015 68.4911 76.1283C75.7185 79.8746 86.094 75.1678 90.199 66.2806C93.3156 59.5333 91.6436 46.5187 87.3654 44.2237C86.4704 43.7436 84.2587 43.3507 82.4507 43.3507C78.6073 43.3507 75.5891 46.1203 71.3575 53.53C69.8945 56.0917 67.4324 59.4017 65.8862 60.8854C63.374 63.2961 62.4769 63.583 57.4524 63.583H51.8298L53.6472 67.6295C56.2486 73.4214 56.1255 82.832 53.3735 88.5607C50.9418 93.623 45.3192 98.748 40.8241 99.9997C36.4482 101.218 29.3224 101.061 25.4092 99.6589ZM46.5825 21.3773C44.0952 17.123 42.5645 9.18066 44.2319 9.18066C46.1904 13.4396 50.2052 17.2392 54.504 19.8905C62.225 23.637 70.0541 22.1247 78.6074 15.2348C80.4904 13.7181 82.1579 12.6458 82.3131 12.8521C84.4016 16.1009 88.0143 18.7558 89.2085 22.531C89.2085 24.1239 82.3676 28.7082 76.9697 30.7325C63.5906 34.5957 54.4848 33.0675 46.5825 21.3773ZM53.3247 11.5433L62.0351 1.86218L71.7151 10.8442C68.4041 13.5776 66.014 17.8198 62.2314 19.9712C59.2426 17.7627 54.7818 15.1587 53.3247 11.5433Z" fill="black"/>
</svg>
