<svg width="1440" height="768" viewBox="0 0 1440 768" fill="none" xmlns="http://www.w3.org/2000/svg">
<g clip-path="url(#clip0_1_2)">
<g filter="url(#filter0_d_1_2)">
<path d="M0 676L203.5 676L232 672.5L263 664.5L293 653.5L316 641.5L333 630L349 618.5L364 606L377.5 593L394 574L408 552.5L417 537.5L426 519L431.5 505.5L437 488L440.5 473L443 462L444.5 449.5L446.5 434L447.5 421.5V408.5L446.5 396.5L444.5 382.5L440.5 368.5L437 358L433.5 350.5L428.5 340.5L424 332.5V332.5C423.915 332.338 423.872 332.257 423.829 332.176C420.608 326.082 416.765 320.338 412.362 315.034C412.303 314.964 412.245 314.894 412.127 314.753L411.5 314L403 304.5L395.5 297L388.5 290.5L378.5 283.5L373 279.5L362.5 273.5L350.5 268L336 262L323.5 258.5L308 255.5L293 254L279.5 254L266.5 255.5V255.5C265.806 255.654 265.459 255.731 265.114 255.811C257.089 257.654 249.323 260.48 241.992 264.227C241.677 264.388 241.361 264.552 240.73 264.88L240.5 265V265C238.834 265.877 238.001 266.315 237.178 266.768C233.118 269.004 229.218 271.518 225.507 274.294C224.755 274.857 224.012 275.435 222.526 276.591L222 277V277C220.926 277.997 220.39 278.495 219.861 279.001C216.677 282.046 213.697 285.297 210.942 288.735C210.485 289.306 210.035 289.884 209.135 291.04L208 292.5V292.5C207.58 293.04 207.37 293.31 207.163 293.581C203.105 298.872 199.586 304.556 196.66 310.547C196.51 310.854 196.362 311.162 196.066 311.779L195 314L194.621 315.054C193.565 317.987 193.037 319.454 192.555 320.934C191.337 324.681 190.341 328.496 189.572 332.36C189.269 333.887 189.013 335.425 188.5 338.5V338.5L187.701 346.219C187.235 350.726 187.272 355.27 187.812 359.769V359.769C188.27 363.581 189.086 367.342 190.25 371.001L192 376.5L194.101 380.934C195.696 384.304 197.613 387.511 199.825 390.512V390.512C202.268 393.828 205.057 396.874 208.145 399.599L208.537 399.944C210.842 401.979 213.294 403.841 215.872 405.517L216.362 405.835C220.109 408.271 224.12 410.271 228.319 411.798V411.798C231.434 412.931 234.639 413.798 237.9 414.391L240.419 414.849C242.801 415.282 245.218 415.5 247.64 415.5H248.277C252.396 415.5 256.486 414.805 260.374 413.444V413.444C263.115 412.485 265.732 411.203 268.17 409.625L270.961 407.819C272.318 406.941 273.603 405.957 274.805 404.876V404.876C276.925 402.968 278.767 400.773 280.278 398.355L280.5 398L282.5 393.5L284.5 388.5L284.707 387.81C285.564 384.952 286 381.984 286 379V379V375V375C286 372.377 285.331 369.797 284.057 367.503L283.5 366.5L282.827 365.322C281.946 363.781 280.864 362.364 279.609 361.109V361.109C278.54 360.04 277.353 359.096 276.071 358.294L275.758 358.099C274.588 357.368 273.356 356.742 272.075 356.23L270.188 355.475C269.397 355.159 268.582 354.907 267.751 354.722V354.722C265.607 354.246 263.388 354.222 261.234 354.653L259.5 355L258.296 355.241C255.833 355.733 253.597 357.016 251.928 358.894V358.894C250.984 359.955 250.242 361.189 249.743 362.519V362.519C249.253 363.825 249 365.214 249 366.609V369V369C249 371.241 249.89 373.39 251.475 374.975L251.5 375L252.872 376.144C253.924 377.02 255.25 377.5 256.619 377.5V377.5C257.527 377.5 258.423 377.288 259.236 376.882L259.69 376.655C260.553 376.223 261.312 375.61 261.915 374.856L262.362 374.298C262.78 373.775 263.058 373.153 263.168 372.492L263.178 372.432C263.38 371.22 262.984 369.984 262.115 369.115L261.735 368.735C261.264 368.264 260.626 368 259.96 368H259.261C258.52 368 257.874 368.505 257.694 369.224V369.224C257.572 369.713 257.685 370.231 258 370.625L259.5 372.5" stroke="black" stroke-width="5"/>
</g>
<g filter="url(#filter1_d_1_2)">
<path d="M1440 676L1236.27 676L1207.74 672.525L1176.71 664.582L1146.67 653.66L1123.65 641.745L1106.63 630.327L1090.61 618.909L1075.59 606.498L1062.08 593.59L1045.56 574.725L1031.54 553.378L1022.53 538.485L1013.52 520.116L1008.02 506.712L1002.51 489.336L999.008 474.443L996.505 463.521L995.003 451.11L993.001 435.72L992 423.309V410.402L993.001 398.487L995.003 384.586L999.008 370.686L1002.51 360.261L1006.02 352.814L1011.02 342.885L1015.53 334.942V334.942C1015.57 334.859 1015.59 334.818 1015.61 334.777C1018.89 328.619 1022.8 322.821 1027.28 317.477C1027.31 317.441 1027.34 317.405 1027.4 317.334L1028.04 316.573L1036.55 307.141L1044.06 299.694L1051.07 293.241L1061.08 286.29L1066.58 282.319L1077.09 276.361L1089.11 270.9L1103.62 264.943L1116.14 261.468L1131.66 258.489L1146.67 257L1160.19 257L1173.2 258.489V258.489C1173.99 258.662 1174.38 258.749 1174.77 258.838C1182.68 260.649 1190.34 263.416 1197.59 267.078C1197.95 267.259 1198.3 267.443 1199.02 267.811L1199.23 267.922V267.922C1200.92 268.804 1201.77 269.245 1202.6 269.701C1206.64 271.906 1210.51 274.387 1214.21 277.126C1214.97 277.693 1215.73 278.275 1217.24 279.439L1217.75 279.836V279.836C1218.81 280.808 1219.33 281.294 1219.85 281.786C1223.07 284.833 1226.08 288.091 1228.86 291.537C1229.31 292.094 1229.75 292.658 1230.64 293.787L1231.77 295.226V295.226C1232.14 295.698 1232.32 295.934 1232.51 296.17C1236.64 301.507 1240.22 307.248 1243.2 313.307C1243.33 313.575 1243.46 313.845 1243.72 314.384L1244.78 316.573L1245.16 317.628C1246.18 320.419 1246.68 321.814 1247.15 323.221C1248.43 327.098 1249.47 331.05 1250.26 335.054C1250.55 336.507 1250.8 337.971 1251.29 340.899V340.899L1252.09 348.561C1252.56 353.037 1252.52 357.551 1251.98 362.019V362.019C1251.52 365.803 1250.7 369.534 1249.54 373.163L1247.79 378.629L1245.69 383.017C1244.09 386.372 1242.16 389.565 1239.95 392.549V392.549C1237.5 395.837 1234.72 398.854 1231.64 401.551L1231.22 401.912C1228.92 403.928 1226.47 405.774 1223.9 407.433L1223.41 407.747C1219.65 410.171 1215.63 412.161 1211.42 413.678V413.678C1208.31 414.801 1205.1 415.661 1201.84 416.249L1199.31 416.705C1196.93 417.136 1194.51 417.352 1192.08 417.352H1191.43C1187.32 417.352 1183.23 416.663 1179.34 415.313V415.313C1176.59 414.359 1173.97 413.083 1171.52 411.511L1168.73 409.721C1167.37 408.852 1166.09 407.878 1164.89 406.807V406.807C1162.77 404.91 1160.92 402.725 1159.4 400.316L1159.19 399.976L1157.18 395.508L1155.18 390.544L1154.97 389.856C1154.12 387.02 1153.68 384.074 1153.68 381.111V381.111V377.14V377.14C1153.68 374.536 1154.35 371.975 1155.62 369.703L1156.18 368.7L1156.85 367.54C1157.74 366.004 1158.82 364.592 1160.08 363.344V363.344C1161.15 362.285 1162.33 361.35 1163.61 360.558L1163.94 360.357C1165.11 359.632 1166.34 359.013 1167.62 358.506L1169.51 357.755C1170.3 357.44 1171.12 357.19 1171.95 357.006V357.006C1174.1 356.533 1176.32 356.51 1178.47 356.937L1180.21 357.282L1181.44 357.526C1183.89 358.012 1186.12 359.283 1187.79 361.143V361.143C1188.73 362.199 1189.48 363.423 1189.98 364.75V364.75C1190.47 366.049 1190.72 367.426 1190.72 368.814V371.182V371.182C1190.72 373.407 1189.83 375.539 1188.25 377.105L1188.22 377.14L1186.85 378.27C1185.79 379.144 1184.47 379.622 1183.09 379.622V379.622C1182.18 379.622 1181.29 379.412 1180.47 379.008L1180.01 378.778C1179.15 378.353 1178.4 377.747 1177.8 377.002L1177.34 376.44C1176.93 375.922 1176.65 375.306 1176.54 374.65L1176.53 374.609C1176.33 373.394 1176.73 372.156 1177.6 371.289L1177.97 370.921C1178.44 370.452 1179.08 370.19 1179.75 370.19H1180.46C1181.2 370.19 1181.84 370.688 1182.02 371.4V371.4C1182.14 371.888 1182.03 372.406 1181.71 372.798L1180.21 374.658" stroke="black" stroke-width="5"/>
</g>
</g>
<defs>
<filter id="filter0_d_1_2" x="-2" y="251.5" width="454" height="431" filterUnits="userSpaceOnUse" color-interpolation-filters="sRGB">
<feFlood flood-opacity="0" result="BackgroundImageFix"/>
<feColorMatrix in="SourceAlpha" type="matrix" values="0 0 0 0 0 0 0 0 0 0 0 0 0 0 0 0 0 0 127 0" result="hardAlpha"/>
<feOffset dy="2"/>
<feGaussianBlur stdDeviation="1"/>
<feComposite in2="hardAlpha" operator="out"/>
<feColorMatrix type="matrix" values="0 0 0 0 0 0 0 0 0 0 0 0 0 0 0 0 0 0 0.25 0"/>
<feBlend mode="normal" in2="BackgroundImageFix" result="effect1_dropShadow_1_2"/>
<feBlend mode="normal" in="SourceGraphic" in2="effect1_dropShadow_1_2" result="shape"/>
</filter>
<filter id="filter1_d_1_2" x="987.5" y="254.5" width="454.5" height="428" filterUnits="userSpaceOnUse" color-interpolation-filters="sRGB">
<feFlood flood-opacity="0" result="BackgroundImageFix"/>
<feColorMatrix in="SourceAlpha" type="matrix" values="0 0 0 0 0 0 0 0 0 0 0 0 0 0 0 0 0 0 127 0" result="hardAlpha"/>
<feOffset dy="2"/>
<feGaussianBlur stdDeviation="1"/>
<feComposite in2="hardAlpha" operator="out"/>
<feColorMatrix type="matrix" values="0 0 0 0 0 0 0 0 0 0 0 0 0 0 0 0 0 0 0.25 0"/>
<feBlend mode="normal" in2="BackgroundImageFix" result="effect1_dropShadow_1_2"/>
<feBlend mode="normal" in="SourceGraphic" in2="effect1_dropShadow_1_2" result="shape"/>
</filter>
<clipPath id="clip0_1_2">
<rect width="1440" height="768" fill="white"/>
</clipPath>
</defs>
</svg>
