<svg xmlns="http://www.w3.org/2000/svg" class="icon icon-tabler icon-tabler-brand-instagram" width="44" height="44" viewBox="0 0 24 24" stroke-width="1.5" stroke="#009999" fill="none" stroke-linecap="round" stroke-linejoin="round">
  <path stroke="none" d="M0 0h24v24H0z"/>
  <rect x="4" y="4" width="16" height="16" rx="4" />
  <circle cx="12" cy="12" r="3" />
  <line x1="16.5" y1="7.5" x2="16.5" y2="7.501" />
</svg>

<svg xmlns="http://www.w3.org/2000/svg" class="icon icon-tabler icon-tabler-brand-google" width="44" height="44" viewBox="0 0 24 24" stroke-width="1.5" stroke="#009999" fill="none" stroke-linecap="round" stroke-linejoin="round">
  <path stroke="none" d="M0 0h24v24H0z"/>
  <path d="M17.788 5.108A9 9 0 1021 12h-8" />
</svg>

<svg xmlns="http://www.w3.org/2000/svg" class="icon icon-tabler icon-tabler-brand-facebook" width="44" height="44" viewBox="0 0 24 24" stroke-width="1.5" stroke="#009999" fill="none" stroke-linecap="round" stroke-linejoin="round">
  <path stroke="none" d="M0 0h24v24H0z"/>
  <path d="M7 10v4h3v7h4v-7h3l1 -4h-4v-2a1 1 0 0 1 1 -1h3v-4h-3a5 5 0 0 0 -5 5v2h-3" />
</svg>